# xmcd
#
# Track frame offsets: 
#        150
#        11995
#        31373
#        47355
#        66245
#        81760
#        100149
#        113235
#        128545
#        139162
#        151963
#        165222
#        178162
#        188808
#        208432
#
# Disc length: 2929 seconds
#
# Revision: 6
# Processed by: cddbd v1.5.1PL0 Copyright (c) Steve Scherf et al.
# Submitted via: ExactAudioCopy v0.95a5
#
DISCID=c80b6f0f
DTITLE=Various Artist - Livin' In the House of Blues: Roadhouse Blues
DYEAR=1997
DGENRE=Blues
TTITLE0=Lonnie Brooks - One More Shot
TTITLE1=Mitch Woods - House of Blue Lights
TTITLE2=Koko Taylor - Beer Bottle Boogie
TTITLE3=Muddy Waters - Got My Mojo Working
TTITLE4=Party Boys - We Got a Party
TTITLE5=John Primer - Lawhorn Special
TTITLE6=Amos Milburn - One Scotch, One Bourbon, One Beer
TTITLE7=Roomful of Blues - Mr. Dollar
TTITLE8=J. B. Hutto - Hip Shakin'
TTITLE9=Little Walter - Boom Boom (Out Go the Lights)
TTITLE10=B. B. King - Jumpin' With B. B.
TTITLE11=Buddy Guy - Money (That's What I Want)
TTITLE12=Otis Spann - Spann's Stomp
TTITLE13=Son Seals - Before the Bullets Fly
TTITLE14=Lloyd Glenn - Blues Hangover
EXTD=LABEL =House of Blues Music Co. - Platinum Entertainment, Inc.\nI
EXTD=D =5141612652\nUPC =751416-1265-24\nCOPYRIGHT =1997
EXTT0=Lonnie Brooks
EXTT1=Mitch Woods
EXTT2=Koko Taylor
EXTT3=Muddy Waters
EXTT4=Party Boys
EXTT5=John Primer
EXTT6=Amos Milburn
EXTT7=Roomful of Blues
EXTT8=J.B. Hutto
EXTT9=Little Walter
EXTT10=B.B. King
EXTT11=Buddy Guy
EXTT12=Otis Spam
EXTT13=Son Seals
EXTT14=Lloyd Glenn
PLAYORDER=
